<?xml version="1.0" encoding="UTF-8" standalone="no"?>
<!-- Created with Inkscape (http://www.inkscape.org/) -->

<svg
   xmlns:dc="http://purl.org/dc/elements/1.1/"
   xmlns:cc="http://creativecommons.org/ns#"
   xmlns:rdf="http://www.w3.org/1999/02/22-rdf-syntax-ns#"
   xmlns:svg="http://www.w3.org/2000/svg"
   xmlns="http://www.w3.org/2000/svg"
   xmlns:sodipodi="http://sodipodi.sourceforge.net/DTD/sodipodi-0.dtd"
   xmlns:inkscape="http://www.inkscape.org/namespaces/inkscape"
   version="1.1"
   id="svg2"
   xml:space="preserve"
   width="1027"
   height="754"
   viewBox="0 0 1027 753.99999"
   sodipodi:docname="header.svg"
   inkscape:version="0.92.2 5c3e80d, 2017-08-06"><metadata
     id="metadata8"><rdf:RDF><cc:Work
         rdf:about=""><dc:format>image/svg+xml</dc:format><dc:type
           rdf:resource="http://purl.org/dc/dcmitype/StillImage" /><dc:title></dc:title></cc:Work></rdf:RDF></metadata><defs
     id="defs6"><clipPath
       clipPathUnits="userSpaceOnUse"
       id="clipPath1924"><path
         d="m 6190,570 h 1680 v 440 H 6190 Z"
         id="path1922"
         inkscape:connector-curvature="0" /></clipPath><clipPath
       clipPathUnits="userSpaceOnUse"
       id="clipPath1930"><path
         d="m 6190,570 h 1680 v 440 H 6190 Z"
         id="path1928"
         inkscape:connector-curvature="0" /></clipPath><clipPath
       clipPathUnits="userSpaceOnUse"
       id="clipPath1934"><path
         d="m 6190,570 h 1680 v 440 H 6190 Z"
         id="path1932"
         inkscape:connector-curvature="0" /></clipPath></defs><sodipodi:namedview
     pagecolor="#ffffff"
     bordercolor="#666666"
     borderopacity="1"
     objecttolerance="10"
     gridtolerance="10"
     guidetolerance="10"
     inkscape:pageopacity="0"
     inkscape:pageshadow="2"
     inkscape:window-width="1663"
     inkscape:window-height="1138"
     id="namedview4"
     showgrid="false"
     inkscape:zoom="0.55114663"
     inkscape:cx="559.47657"
     inkscape:cy="735.17226"
     inkscape:window-x="1480"
     inkscape:window-y="62"
     inkscape:window-maximized="0"
     inkscape:current-layer="g10" /><g
     id="g10"
     inkscape:groupmode="layer"
     inkscape:label="vectorized_file"
     transform="matrix(1.3333333,0,0,-1.3333333,0,753.99998)"><path
       inkscape:connector-curvature="0"
       id="path296"
       style="fill:#231f20;fill-opacity:1;fill-rule:nonzero;stroke:none;stroke-width:0.1"
       d="m 39.27291,485.6413 h 9.025 v -38.33 h 13.2453 v 87.21 h -13.2453 v -34.93 h -9.025 v 34.93 h -13.2469 v -87.21 h 13.2469 v 38.33" /><path
       inkscape:connector-curvature="0"
       id="path298"
       style="fill:#231f20;fill-opacity:1;fill-rule:nonzero;stroke:none;stroke-width:0.1"
       d="m 102.19471,515.4113 c 0,11.96 -4.101,19.93 -16.995,19.93 h -2.228 c -12.543,0 -16.997,-7.85 -16.997,-20.04 v -48.53 c 0,-12.19 4.454,-20.51 17.114,-20.51 h 2.228 c 12.777,0 16.878,8.32 16.878,20.51 z m -13.48,-49.58 c 0,-3.75 -0.82,-6.68 -4.454,-6.68 -3.75,0 -4.805,2.93 -4.805,6.68 v 50.17 c 0,4.57 1.289,6.68 4.688,6.68 3.048,0 4.571,-2.23 4.571,-6.68 v -50.17" /><path
       inkscape:connector-curvature="0"
       id="path300"
       style="fill:#231f20;fill-opacity:1;fill-rule:nonzero;stroke:none;stroke-width:0.1"
       d="m 128.64971,534.5213 -5.861,-56.38 -5.978,56.38 h -13.363 l 10.902,-87.21 h 14.651 l 5.627,50.75 5.509,-50.75 h 14.183 l 11.136,87.21 h -12.425 l -6.095,-56.5 -5.978,56.5 h -12.308" /><path
       inkscape:connector-curvature="0"
       id="path302"
       style="fill:#231f20;fill-opacity:1;fill-rule:nonzero;stroke:none;stroke-width:0.1"
       d="m 199.34971,534.5213 -5.861,-56.38 -5.978,56.38 h -13.363 l 10.902,-87.21 h 14.651 l 5.627,50.75 5.509,-50.75 h 14.183 l 11.136,87.21 h -12.425 l -6.095,-56.5 -5.978,56.5 h -12.308" /><path
       inkscape:connector-curvature="0"
       id="path304"
       style="fill:#231f20;fill-opacity:1;fill-rule:nonzero;stroke:none;stroke-width:0.1"
       d="m 251.67271,534.5213 h -13.247 v -87.21 h 13.247 v 87.21" /><path
       inkscape:connector-curvature="0"
       id="path306"
       style="fill:#231f20;fill-opacity:1;fill-rule:nonzero;stroke:none;stroke-width:0.1"
       d="m 256.42571,534.5213 v -87.21 h 29.422 v 13.48 h -16.175 v 73.73 h -13.247" /><path
       inkscape:connector-curvature="0"
       id="path308"
       style="fill:#231f20;fill-opacity:1;fill-rule:nonzero;stroke:none;stroke-width:0.1"
       d="m 289.12571,534.5213 v -87.21 h 29.422 v 13.48 h -16.175 v 73.73 h -13.247" /><path
       inkscape:connector-curvature="0"
       id="path310"
       style="fill:#231f20;fill-opacity:1;fill-rule:nonzero;stroke:none;stroke-width:0.1"
       d="m 353.54971,534.5213 -5.861,-56.38 -5.978,56.38 h -13.363 l 10.902,-87.21 h 14.651 l 5.627,50.75 5.509,-50.75 h 14.183 l 11.136,87.21 h -12.425 l -6.095,-56.5 -5.978,56.5 h -12.308" /><path
       inkscape:connector-curvature="0"
       id="path312"
       style="fill:#231f20;fill-opacity:1;fill-rule:nonzero;stroke:none;stroke-width:0.1"
       d="m 392.52571,534.5213 v -87.21 h 30.83 v 13.25 h -17.583 v 25.2 h 13.246 v 13.24 h -13.246 v 22.86 h 16.878 v 12.66 h -30.125" /><path
       inkscape:connector-curvature="0"
       id="path314"
       style="fill:#231f20;fill-opacity:1;fill-rule:nonzero;stroke:none;stroke-width:0.1"
       d="m 47.71201,360.81133 c 0,-3.634 -1.1719,-5.861 -4.3375,-5.861 -2.8125,0 -4.2188,1.992 -4.2188,5.978 v 51.81297 c 0,3.87 0.8203,5.74 4.1016,5.74 3.2828,0 4.4547,-1.99 4.4547,-5.74 v -15.358 h 13.0109 v 15.588 c 0,8.56 -1.6406,18.17 -16.175,18.17 h -3.0484 c -11.9563,0 -15.825,-8.56 -15.825,-17.46 v -53.22197 c 0,-8.792 2.814,-18.403 16.2937,-18.403 h 2.9313 c 12.6593,0 15.8234,9.494 15.8234,18.872 v 20.16097 h -13.0109 v -20.27797" /><path
       inkscape:connector-curvature="0"
       id="path316"
       style="fill:#231f20;fill-opacity:1;fill-rule:nonzero;stroke:none;stroke-width:0.1"
       d="m 100.69471,411.2113 c 0,11.96 -4.101,19.93 -16.995,19.93 h -2.228 c -12.543,0 -16.997,-7.85 -16.997,-20.04 v -48.53197 c 0,-12.191 4.454,-20.513 17.114,-20.513 h 2.228 c 12.777,0 16.878,8.322 16.878,20.513 z m -13.48,-49.57997 c 0,-3.751 -0.82,-6.681 -4.454,-6.681 -3.75,0 -4.805,2.93 -4.805,6.681 v 50.16997 c 0,4.57 1.289,6.68 4.688,6.68 3.048,0 4.571,-2.23 4.571,-6.68 v -50.16997" /><path
       inkscape:connector-curvature="0"
       id="path318"
       style="fill:#231f20;fill-opacity:1;fill-rule:nonzero;stroke:none;stroke-width:0.1"
       d="m 105.12571,430.3213 v -87.20997 h 11.957 v 50.16897 l 12.661,-50.16897 h 10.782 v 87.20997 h -12.073 v -46.769 l -11.37,46.769 h -11.957" /><path
       inkscape:connector-curvature="0"
       id="path320"
       style="fill:#231f20;fill-opacity:1;fill-rule:nonzero;stroke:none;stroke-width:0.1"
       d="m 145.32571,430.3213 v -87.20997 h 11.957 v 50.16897 l 12.661,-50.16897 h 10.782 v 87.20997 h -12.073 v -46.769 l -11.37,46.769 h -11.957" /><path
       inkscape:connector-curvature="0"
       id="path322"
       style="fill:#231f20;fill-opacity:1;fill-rule:nonzero;stroke:none;stroke-width:0.1"
       d="m 185.52571,430.3213 v -87.20997 h 30.83 v 13.245 h -17.583 v 25.20197 h 13.246 v 13.247 h -13.246 v 22.856 h 16.878 v 12.66 h -30.125" /><path
       inkscape:connector-curvature="0"
       id="path324"
       style="fill:#231f20;fill-opacity:1;fill-rule:nonzero;stroke:none;stroke-width:0.1"
       d="m 240.71171,360.81133 c 0,-3.634 -1.172,-5.861 -4.337,-5.861 -2.813,0 -4.219,1.992 -4.219,5.978 v 51.81297 c 0,3.87 0.82,5.74 4.102,5.74 3.282,0 4.454,-1.99 4.454,-5.74 v -15.358 h 13.011 v 15.588 c 0,8.56 -1.64,18.17 -16.175,18.17 h -3.048 c -11.956,0 -15.825,-8.56 -15.825,-17.46 v -53.22197 c 0,-8.792 2.814,-18.403 16.294,-18.403 h 2.931 c 12.659,0 15.823,9.494 15.823,18.872 v 20.16097 h -13.011 v -20.27797" /><path
       inkscape:connector-curvature="0"
       id="path326"
       style="fill:#231f20;fill-opacity:1;fill-rule:nonzero;stroke:none;stroke-width:0.1"
       d="m 255.98571,430.3213 v -12.66 h 11.136 v -74.54997 h 13.128 v 74.54997 h 11.136 v 12.66 h -35.4" /><path
       inkscape:connector-curvature="0"
       id="path328"
       style="fill:#231f20;fill-opacity:1;fill-rule:nonzero;stroke:none;stroke-width:0.1"
       d="m 301.98571,430.3213 v -12.66 h 11.136 v -74.54997 h 13.128 v 74.54997 h 11.136 v 12.66 h -35.4" /><path
       inkscape:connector-curvature="0"
       id="path330"
       style="fill:#231f20;fill-opacity:1;fill-rule:nonzero;stroke:none;stroke-width:0.1"
       d="m 353.77271,381.4413 h 9.025 v -38.32997 h 13.246 v 87.20997 h -13.246 v -34.93 h -9.025 v 34.93 h -13.247 v -87.20997 h 13.247 v 38.32997" /><path
       inkscape:connector-curvature="0"
       id="path332"
       style="fill:#231f20;fill-opacity:1;fill-rule:nonzero;stroke:none;stroke-width:0.1"
       d="m 380.82571,430.3213 v -87.20997 h 30.83 v 13.245 h -17.583 v 25.20197 h 13.246 v 13.247 h -13.246 v 22.856 h 16.878 v 12.66 h -30.125" /><path
       inkscape:connector-curvature="0"
       id="path334"
       style="fill:#231f20;fill-opacity:1;fill-rule:nonzero;stroke:none;stroke-width:0.1"
       d="m 48.64951,326.12033 -5.861,-56.381 -5.9781,56.381 h -13.3625 l 10.9016,-87.209 h 14.6515 l 5.6266,50.755 5.5094,-50.755 h 14.1827 l 11.136,87.209 h -12.425 l -6.095,-56.498 -5.9784,56.498 h -12.3078" /><path
       inkscape:connector-curvature="0"
       id="path336"
       style="fill:#231f20;fill-opacity:1;fill-rule:nonzero;stroke:none;stroke-width:0.1"
       d="m 122.99471,307.01433 c 0,11.956 -4.101,19.928 -16.995,19.928 h -2.228 c -12.543,0 -16.997,-7.854 -16.997,-20.045 v -48.528 c 0,-12.191 4.454,-20.513 17.114,-20.513 h 2.228 c 12.777,0 16.878,8.322 16.878,20.513 z m -13.48,-49.583 c 0,-3.751 -0.82,-6.681 -4.454,-6.681 -3.75,0 -4.805,2.93 -4.805,6.681 v 50.169 c 0,4.572 1.289,6.681 4.688,6.681 3.048,0 4.571,-2.226 4.571,-6.681 v -50.169" /><path
       inkscape:connector-curvature="0"
       id="path338"
       style="fill:#231f20;fill-opacity:1;fill-rule:nonzero;stroke:none;stroke-width:0.1"
       d="m 140.67271,314.28133 h 3.516 c 4.103,0 4.806,-1.875 4.806,-5.625 v -12.19 c 0,-3.869 -1.172,-6.214 -4.806,-6.214 h -3.516 z m 0,-36.454 h 3.399 c 4.22,0 4.923,-1.641 4.923,-5.508 v -26.258 c 0,-4.689 0.703,-6.212 1.289,-7.15 h 13.128 v 0.586 c -0.586,1.289 -1.289,2.814 -1.289,6.447 v 30.594 c 0,5.978 -2.812,8.206 -5.744,9.495 2.346,0.937 5.744,3.867 5.744,11.136 v 15.472 c 0,9.847 -4.337,13.479 -13.245,13.479 h -21.452 v -87.209 h 13.247 v 38.916" /><path
       inkscape:connector-curvature="0"
       id="path340"
       style="fill:#231f20;fill-opacity:1;fill-rule:nonzero;stroke:none;stroke-width:0.1"
       d="m 166.52571,326.12033 v -87.209 h 29.422 v 13.48 h -16.175 v 73.729 h -13.247" /><path
       inkscape:connector-curvature="0"
       id="path342"
       style="fill:#231f20;fill-opacity:1;fill-rule:nonzero;stroke:none;stroke-width:0.1"
       d="m 199.22571,238.91133 h 20.28 c 10.902,0 14.886,6.564 14.886,17.348 v 53.1 c 0,10.315 -3.516,16.761 -14.886,16.761 h -20.28 z m 13.247,75.37 h 3.75 c 3.283,0 4.572,-1.757 4.572,-6.798 v -49.114 c 0,-4.689 -1.055,-6.799 -5.158,-6.799 h -3.164 v 62.711" /><path
       inkscape:connector-curvature="0"
       id="path344"
       style="fill:#231f20;fill-opacity:1;fill-rule:nonzero;stroke:none;stroke-width:0.1"
       d="m 283.89471,307.01433 c 0,11.956 -4.101,19.928 -16.995,19.928 h -2.228 c -12.543,0 -16.997,-7.854 -16.997,-20.045 v -48.528 c 0,-12.191 4.454,-20.513 17.114,-20.513 h 2.228 c 12.777,0 16.878,8.322 16.878,20.513 z m -13.48,-49.583 c 0,-3.751 -0.82,-6.681 -4.454,-6.681 -3.75,0 -4.805,2.93 -4.805,6.681 v 50.169 c 0,4.572 1.289,6.681 4.688,6.681 3.048,0 4.571,-2.226 4.571,-6.681 v -50.169" /><path
       inkscape:connector-curvature="0"
       id="path346"
       style="fill:#231f20;fill-opacity:1;fill-rule:nonzero;stroke:none;stroke-width:0.1"
       d="m 288.32571,238.91133 h 13.247 v 38.33 h 13.363 v 13.247 h -13.363 v 22.973 h 16.878 v 12.659 h -30.125 v -87.209" /><path
       inkscape:connector-curvature="0"
       id="path348"
       style="fill:#231f20;fill-opacity:1;fill-rule:nonzero;stroke:none;stroke-width:0.1"
       d="m 330.82571,238.91133 h 20.28 c 10.902,0 14.886,6.564 14.886,17.348 v 53.1 c 0,10.315 -3.516,16.761 -14.886,16.761 h -20.28 z m 13.247,75.37 h 3.75 c 3.283,0 4.572,-1.757 4.572,-6.798 v -49.114 c 0,-4.689 -1.055,-6.799 -5.158,-6.799 h -3.164 v 62.711" /><path
       inkscape:connector-curvature="0"
       id="path350"
       style="fill:#231f20;fill-opacity:1;fill-rule:nonzero;stroke:none;stroke-width:0.1"
       d="m 370.52571,326.12033 v -87.209 h 30.83 v 13.245 h -17.583 v 25.202 h 13.246 v 13.247 h -13.246 v 22.856 h 16.878 v 12.659 h -30.125" /><path
       inkscape:connector-curvature="0"
       id="path352"
       style="fill:#231f20;fill-opacity:1;fill-rule:nonzero;stroke:none;stroke-width:0.1"
       d="m 420.56871,326.94233 c -10.433,0 -16.294,-5.275 -16.294,-16.997 v -2.814 c 0,-8.673 1.642,-14.3 7.269,-21.567 l 8.439,-10.784 c 4.806,-6.33 5.392,-8.322 5.392,-14.652 v -1.994 c 0,-5.509 -1.172,-7.501 -4.338,-7.501 -2.929,0 -4.337,1.992 -4.337,6.095 v 15.238 h -13.128 v -17.464 c 0,-10.785 5.509,-16.528 16.176,-16.528 h 2.578 c 11.722,0 17.114,7.618 17.114,20.395 v 2.814 c 0,9.962 -1.875,14.3 -7.853,22.036 l -8.439,10.901 c -4.454,5.744 -5.392,8.441 -5.392,13.363 v 1.642 c 0,4.102 0.703,6.095 3.867,6.095 3.166,0 3.752,-2.228 3.752,-5.157 v -12.543 h 12.776 v 14.3 c 0,10.316 -4.22,15.122 -15.122,15.122 h -2.46" /><path
       inkscape:connector-curvature="0"
       id="path354"
       style="fill:#231f20;fill-opacity:1;fill-rule:nonzero;stroke:none;stroke-width:0.1"
       d="m 456.37271,326.12033 h -13.247 v -87.209 h 13.247 v 87.209" /><path
       inkscape:connector-curvature="0"
       id="path356"
       style="fill:#231f20;fill-opacity:1;fill-rule:nonzero;stroke:none;stroke-width:0.1"
       d="m 474.25571,237.73933 c 6.681,0 11.134,6.799 12.073,9.728 1.055,-3.75 2.11,-8.087 2.227,-8.556 h 7.502 v 52.983 h -18.521 v -13.363 h 5.978 v -21.803 c 0,-3.283 -1.523,-5.626 -4.923,-5.626 -2.93,0 -4.336,2.109 -4.336,6.212 v 50.989 c 0,3.986 1.406,5.978 4.102,5.978 3.282,0 4.22,-2.109 4.22,-5.978 v -9.845 h 12.894 v 8.908 c 0,10.315 -1.641,19.576 -15.824,19.576 h -2.579 c -12.66,0 -16.294,-9.026 -16.294,-18.756 v -54.506 c 0,-9.025 4.806,-15.941 12.659,-15.941 h 0.822" /><path
       inkscape:connector-curvature="0"
       id="path358"
       style="fill:#231f20;fill-opacity:1;fill-rule:nonzero;stroke:none;stroke-width:0.1"
       d="m 500.52571,326.12033 v -87.209 h 11.957 v 50.169 l 12.661,-50.169 h 10.782 v 87.209 h -12.073 v -46.768 l -11.37,46.768 h -11.957" /><path
       inkscape:connector-curvature="0"
       id="path360"
       style="fill:#231f20;fill-opacity:1;fill-rule:nonzero;stroke:none;stroke-width:0.1"
       d="m 48.64951,221.92033 -5.861,-56.381 -5.9781,56.381 h -13.3625 l 10.9016,-87.209 h 14.6515 l 5.6266,50.755 5.5094,-50.755 h 14.1827 l 11.136,87.209 h -12.425 l -6.095,-56.498 -5.9784,56.498 h -12.3078" /><path
       inkscape:connector-curvature="0"
       id="path362"
       style="fill:#231f20;fill-opacity:1;fill-rule:nonzero;stroke:none;stroke-width:0.1"
       d="m 100.87271,221.92033 h -13.247 v -87.209 h 13.247 v 87.209" /><path
       inkscape:connector-curvature="0"
       id="path364"
       style="fill:#231f20;fill-opacity:1;fill-rule:nonzero;stroke:none;stroke-width:0.1"
       d="m 104.08571,221.92033 v -12.659 h 11.136 v -74.55 h 13.128 v 74.55 h 11.136 v 12.659 h -35.4" /><path
       inkscape:connector-curvature="0"
       id="path366"
       style="fill:#231f20;fill-opacity:1;fill-rule:nonzero;stroke:none;stroke-width:0.1"
       d="m 155.87271,173.04133 h 9.025 v -38.33 h 13.246 v 87.209 h -13.246 v -34.929 h -9.025 v 34.929 h -13.247 v -87.209 h 13.247 v 38.33" /><path
       inkscape:connector-curvature="0"
       id="path368"
       style="fill:#231f20;fill-opacity:1;fill-rule:nonzero;stroke:none;stroke-width:0.1"
       d="m 190.38571,221.92033 v -12.659 h 11.136 v -74.55 h 13.128 v 74.55 h 11.136 v 12.659 h -35.4" /><path
       inkscape:connector-curvature="0"
       id="path370"
       style="fill:#231f20;fill-opacity:1;fill-rule:nonzero;stroke:none;stroke-width:0.1"
       d="m 242.17271,173.04133 h 9.025 v -38.33 h 13.246 v 87.209 h -13.246 v -34.929 h -9.025 v 34.929 h -13.247 v -87.209 h 13.247 v 38.33" /><path
       inkscape:connector-curvature="0"
       id="path372"
       style="fill:#231f20;fill-opacity:1;fill-rule:nonzero;stroke:none;stroke-width:0.1"
       d="m 269.22571,221.92033 v -87.209 h 30.83 v 13.245 h -17.583 v 25.202 h 13.246 v 13.247 h -13.246 v 22.856 h 16.878 v 12.659 h -30.125" /><path
       inkscape:connector-curvature="0"
       id="path374"
       style="fill:#231f20;fill-opacity:1;fill-rule:nonzero;stroke:none;stroke-width:0.1"
       d="m 312.42571,134.71133 h 11.839 v 56.381 l 8.089,-56.381 h 5.275 l 7.971,56.381 v -56.381 h 12.425 v 87.209 h -15.825 l -6.447,-46.065 -6.33,46.065 h -16.997 v -87.209" /><path
       inkscape:connector-curvature="0"
       id="path376"
       style="fill:#231f20;fill-opacity:1;fill-rule:nonzero;stroke:none;stroke-width:0.1"
       d="m 384.98071,134.71133 h 12.777 l -11.371,87.209 h -15.706 l -10.667,-87.209 h 11.839 l 1.641,16.411 h 9.729 z m -6.681,61.656 3.517,-32.234 h -6.917 z" /><path
       inkscape:connector-curvature="0"
       id="path378"
       style="fill:#231f20;fill-opacity:1;fill-rule:nonzero;stroke:none;stroke-width:0.1"
       d="m 412.97271,172.57233 11.017,-37.861 h 13.599 l -13.599,46.653 12.308,40.556 h -12.894 l -10.431,-34.929 v 34.929 h -13.247 v -87.209 h 13.247 v 37.861" /><path
       inkscape:connector-curvature="0"
       id="path380"
       style="fill:#231f20;fill-opacity:1;fill-rule:nonzero;stroke:none;stroke-width:0.1"
       d="m 439.22571,221.92033 v -87.209 h 30.83 v 13.245 h -17.583 v 25.202 h 13.246 v 13.247 h -13.246 v 22.856 h 16.878 v 12.659 h -30.125" /><path
       inkscape:connector-curvature="0"
       id="path382"
       style="fill:#231f20;fill-opacity:1;fill-rule:nonzero;stroke:none;stroke-width:0.1"
       d="m 486.57271,210.08133 h 3.516 c 4.103,0 4.806,-1.875 4.806,-5.625 v -12.19 c 0,-3.869 -1.172,-6.214 -4.806,-6.214 h -3.516 z m 0,-36.454 h 3.399 c 4.22,0 4.923,-1.641 4.923,-5.508 v -26.258 c 0,-4.689 0.703,-6.212 1.289,-7.15 h 13.128 v 0.586 c -0.586,1.289 -1.289,2.814 -1.289,6.447 v 30.594 c 0,5.978 -2.812,8.206 -5.744,9.495 2.346,0.937 5.744,3.867 5.744,11.136 v 15.472 c 0,9.847 -4.337,13.479 -13.245,13.479 h -21.452 v -87.209 h 13.247 v 38.916" /><path
       inkscape:connector-curvature="0"
       id="path384"
       style="fill:#231f20;fill-opacity:1;fill-rule:nonzero;stroke:none;stroke-width:0.1"
       d="m 26.02601,30.51133 h 11.8391 v 56.381 l 8.089,-56.381 h 5.275 l 7.9704,56.381 v -56.381 h 12.4252 v 87.209 h -15.8252 l -6.4469,-46.065 -6.3297,46.065 h -16.9969 v -87.209" /><path
       inkscape:connector-curvature="0"
       id="path386"
       style="fill:#231f20;fill-opacity:1;fill-rule:nonzero;stroke:none;stroke-width:0.1"
       d="m 112.29471,98.61433 c 0,11.956 -4.101,19.928 -16.995,19.928 h -2.228 c -12.543,0 -16.997,-7.854 -16.997,-20.045 v -48.528 c 0,-12.191 4.454,-20.513 17.114,-20.513 h 2.228 c 12.777,0 16.878,8.322 16.878,20.513 z m -13.48,-49.583 c 0,-3.751 -0.82,-6.681 -4.454,-6.681 -3.75,0 -4.805,2.93 -4.805,6.681 v 50.169 c 0,4.572 1.289,6.681 4.688,6.681 3.048,0 4.571,-2.226 4.571,-6.681 v -50.169" /><path
       inkscape:connector-curvature="0"
       id="path388"
       style="fill:#231f20;fill-opacity:1;fill-rule:nonzero;stroke:none;stroke-width:0.1"
       d="m 124.56671,30.51133 h 16.058 l 11.019,87.209 h -12.543 l -6.095,-60.015 -5.978,60.015 h -13.48 l 11.019,-87.209" /><path
       inkscape:connector-curvature="0"
       id="path390"
       style="fill:#231f20;fill-opacity:1;fill-rule:nonzero;stroke:none;stroke-width:0.1"
       d="m 153.92571,117.72033 v -87.209 h 30.83 v 13.245 h -17.583 v 25.202 h 13.246 v 13.247 h -13.246 v 22.856 h 16.878 v 12.659 h -30.125" /><path
       inkscape:connector-curvature="0"
       id="path392"
       style="fill:#231f20;fill-opacity:1;fill-rule:nonzero;stroke:none;stroke-width:0.1"
       d="m 188.02571,30.51133 h 11.839 v 56.381 l 8.089,-56.381 h 5.275 l 7.971,56.381 v -56.381 h 12.425 v 87.209 h -15.825 l -6.447,-46.065 -6.33,46.065 h -16.997 v -87.209" /><path
       inkscape:connector-curvature="0"
       id="path394"
       style="fill:#231f20;fill-opacity:1;fill-rule:nonzero;stroke:none;stroke-width:0.1"
       d="m 238.42571,117.72033 v -87.209 h 30.83 v 13.245 h -17.583 v 25.202 h 13.246 v 13.247 h -13.246 v 22.856 h 16.878 v 12.659 h -30.125" /><path
       inkscape:connector-curvature="0"
       id="path396"
       style="fill:#231f20;fill-opacity:1;fill-rule:nonzero;stroke:none;stroke-width:0.1"
       d="m 272.52571,117.72033 v -87.209 h 11.957 v 50.169 l 12.661,-50.169 h 10.782 v 87.209 h -12.073 v -46.768 l -11.37,46.768 h -11.957" /><path
       inkscape:connector-curvature="0"
       id="path398"
       style="fill:#231f20;fill-opacity:1;fill-rule:nonzero;stroke:none;stroke-width:0.1"
       d="m 311.08571,117.72033 v -12.659 h 11.136 v -74.55 h 13.128 v 74.55 h 11.136 v 12.659 h -35.4" /><path
       inkscape:connector-curvature="0"
       id="path400"
       style="fill:#231f20;fill-opacity:1;fill-rule:nonzero;stroke:none;stroke-width:0.1"
       d="m 367.28271,48.44533 v 10.199 c 0,6.915 0.468,9.025 3.867,14.065 l 3.869,5.393 c 3.984,5.861 5.275,9.845 5.275,15.706 v 8.675 c 0,10.198 -3.518,16.294 -15.591,16.294 h -2.578 c -12.074,0 -14.536,-7.269 -14.536,-17.114 v -14.068 h 12.659 v 14.068 c 0,3.281 0.469,4.571 3.166,4.571 2.695,0 3.398,-1.29 3.398,-4.571 v -6.33 c 0,-4.572 -0.117,-7.267 -2.695,-11.37 l -3.4,-5.744 c -3.75,-6.213 -4.102,-8.322 -4.102,-15.708 v -14.066 z m 0.82,-2.931 h -12.191 v -15.003 h 12.191 v 15.003" /><path
       inkscape:connector-curvature="0"
       id="path490"
       style="fill:#231f20;fill-opacity:1;fill-rule:nonzero;stroke:none;stroke-width:0.1"
       d="m 607.40271,521.0713 h 2.122 c 1.588,0.02 2.878,0.48 3.776,1.44 0.875,0.96 1.347,2.25 1.347,3.89 -0.006,1.64 -0.449,2.93 -1.347,3.89 -0.921,0.96 -2.157,1.43 -3.776,1.43 h -2.122 z m 2.122,13.06 c 2.442,0.03 4.472,-0.71 5.997,-2.12 1.494,-1.41 2.287,-3.28 2.287,-5.61 -0.026,-2.33 -0.762,-4.19 -2.287,-5.59 -1.555,-1.4 -3.523,-2.1 -5.997,-2.1 h -5.236 v 15.42 h 5.236" /><path
       inkscape:connector-curvature="0"
       id="path492"
       style="fill:#231f20;fill-opacity:1;fill-rule:nonzero;stroke:none;stroke-width:0.1"
       d="m 622.93371,534.0613 c -10e-4,-0.51 -0.184,-0.97 -0.553,-1.34 -0.384,-0.34 -0.813,-0.56 -1.336,-0.56 -0.528,0.02 -0.968,0.19 -1.336,0.56 -0.394,0.4 -0.551,0.81 -0.551,1.34 -0.009,0.55 0.183,0.98 0.551,1.35 0.342,0.4 0.813,0.55 1.336,0.55 0.518,0.02 0.968,-0.18 1.336,-0.55 0.352,-0.33 0.553,-0.82 0.553,-1.35 z m -3.445,-15.35 v 12.24 h 3.114 v -12.24 h -3.114" /><path
       inkscape:connector-curvature="0"
       id="path494"
       style="fill:#231f20;fill-opacity:1;fill-rule:nonzero;stroke:none;stroke-width:0.1"
       d="m 624.40271,527.3713 c -0.024,1.07 0.449,1.95 1.347,2.67 0.892,0.75 2.092,1.09 3.579,1.09 1.455,0.02 2.681,-0.36 3.58,-1.08 0.873,-0.69 1.377,-1.68 1.436,-2.9 h -3.183 c -0.098,1.05 -0.72,1.55 -1.898,1.55 -0.601,0 -1.047,-0.12 -1.37,-0.36 -0.345,-0.21 -0.486,-0.56 -0.486,-0.97 -0.026,-0.4 0.242,-0.74 0.728,-0.97 0.484,-0.23 1.075,-0.42 1.767,-0.55 0.669,-0.11 1.381,-0.3 2.066,-0.5 0.672,-0.18 1.271,-0.55 1.757,-1.06 0.455,-0.5 0.73,-1.18 0.73,-2.02 -0.009,-1.09 -0.468,-2.01 -1.403,-2.7 -0.943,-0.68 -2.129,-1.04 -3.58,-1.04 -1.465,0.03 -2.64,0.35 -3.569,1.03 -0.951,0.7 -1.435,1.67 -1.523,2.95 h 3.181 c 0.107,-1.03 0.774,-1.55 1.967,-1.55 0.541,0.02 1.038,0.13 1.391,0.39 0.324,0.28 0.53,0.6 0.53,1.02 -0.006,0.43 -0.243,0.75 -0.728,0.99 -0.516,0.26 -1.075,0.43 -1.768,0.56 -0.7,0.17 -1.382,0.3 -2.067,0.49 -0.703,0.19 -1.27,0.53 -1.756,1.03 -0.486,0.51 -0.728,1.13 -0.728,1.93" /><path
       inkscape:connector-curvature="0"
       id="path496"
       style="fill:#231f20;fill-opacity:1;fill-rule:nonzero;stroke:none;stroke-width:0.1"
       d="m 641.13871,521.3213 h 1.478 v -2.61 h -1.964 c -1.261,0 -2.218,0.29 -2.895,0.86 -0.686,0.59 -1.016,1.53 -1.016,2.85 v 5.99 h -1.303 v 2.54 h 1.303 v 3.03 h 3.114 v -3.03 h 2.739 v -2.54 h -2.739 v -5.99 c -0.009,-0.37 0.096,-0.68 0.288,-0.85 0.187,-0.16 0.523,-0.25 0.995,-0.25" /><path
       inkscape:connector-curvature="0"
       id="path498"
       style="fill:#231f20;fill-opacity:1;fill-rule:nonzero;stroke:none;stroke-width:0.1"
       d="m 647.40271,530.9513 v -2.16 c 0.801,1.56 2.017,2.34 3.578,2.34 v -3.19 h -0.773 c -0.953,0.03 -1.627,-0.23 -2.099,-0.69 -0.497,-0.45 -0.706,-1.26 -0.706,-2.4 v -6.14 h -3.114 v 12.24 h 3.114" /><path
       inkscape:connector-curvature="0"
       id="path500"
       style="fill:#231f20;fill-opacity:1;fill-rule:nonzero;stroke:none;stroke-width:0.1"
       d="m 655.83371,534.0613 c -10e-4,-0.51 -0.184,-0.97 -0.553,-1.34 -0.384,-0.34 -0.813,-0.56 -1.336,-0.56 -0.528,0.02 -0.968,0.19 -1.336,0.56 -0.394,0.4 -0.551,0.81 -0.551,1.34 -0.009,0.55 0.183,0.98 0.551,1.35 0.342,0.4 0.813,0.55 1.336,0.55 0.518,0.02 0.968,-0.18 1.336,-0.55 0.352,-0.33 0.553,-0.82 0.553,-1.35 z m -3.445,-15.35 v 12.24 h 3.114 v -12.24 h -3.114" /><path
       inkscape:connector-curvature="0"
       id="path502"
       style="fill:#231f20;fill-opacity:1;fill-rule:nonzero;stroke:none;stroke-width:0.1"
       d="m 666.69371,522.2013 c 0.619,0.65 0.96,1.53 0.96,2.65 -0.007,1.14 -0.32,2 -0.96,2.63 -0.662,0.64 -1.396,0.95 -2.265,0.95 -0.901,0.03 -1.624,-0.32 -2.265,-0.96 -0.652,-0.63 -0.961,-1.52 -0.961,-2.64 -0.024,-1.09 0.32,-2 0.961,-2.64 0.63,-0.64 1.397,-0.96 2.265,-0.96 0.836,0.02 1.624,0.32 2.265,0.97 z m -5.491,6.85 c 0.846,1.4 2.144,2.08 3.822,2.08 1.647,0.02 3.063,-0.59 4.153,-1.76 1.075,-1.16 1.636,-2.68 1.636,-4.53 -0.028,-1.82 -0.545,-3.36 -1.636,-4.54 -1.106,-1.17 -2.463,-1.77 -4.12,-1.77 -1.666,0.03 -2.942,0.75 -3.855,2.23 v -2.05 h -3.114 v 16.35 h 3.114 v -6.01" /><path
       inkscape:connector-curvature="0"
       id="path504"
       style="fill:#231f20;fill-opacity:1;fill-rule:nonzero;stroke:none;stroke-width:0.1"
       d="m 680.92771,530.9513 h 3.114 v -12.24 h -3.114 v 1.86 c -0.814,-1.33 -2.056,-2.01 -3.822,-2.01 -1.411,0.01 -2.52,0.46 -3.403,1.38 -0.908,0.94 -1.325,2.19 -1.325,3.83 v 7.18 h 3.092 v -6.74 c -0.013,-0.92 0.243,-1.69 0.73,-2.21 0.463,-0.51 1.149,-0.77 1.987,-0.77 0.821,0.02 1.507,0.26 2,0.77 0.475,0.52 0.741,1.25 0.741,2.21 v 6.74" /><path
       inkscape:connector-curvature="0"
       id="path506"
       style="fill:#231f20;fill-opacity:1;fill-rule:nonzero;stroke:none;stroke-width:0.1"
       d="m 691.33871,521.3213 h 1.478 v -2.61 h -1.964 c -1.261,0 -2.218,0.29 -2.895,0.86 -0.686,0.59 -1.016,1.53 -1.016,2.85 v 5.99 h -1.303 v 2.54 h 1.303 v 3.03 h 3.114 v -3.03 h 2.739 v -2.54 h -2.739 v -5.99 c -0.009,-0.37 0.096,-0.68 0.288,-0.85 0.187,-0.16 0.523,-0.25 0.995,-0.25" /><path
       inkscape:connector-curvature="0"
       id="path508"
       style="fill:#231f20;fill-opacity:1;fill-rule:nonzero;stroke:none;stroke-width:0.1"
       d="m 699.65771,518.5313 c -1.792,0.03 -3.234,0.58 -4.354,1.74 -1.143,1.17 -1.678,2.68 -1.678,4.58 -0.032,1.92 0.563,3.42 1.689,4.56 1.099,1.18 2.586,1.72 4.375,1.72 1.77,0.02 3.259,-0.56 4.408,-1.67 1.127,-1.1 1.724,-2.6 1.724,-4.45 -0.031,-0.43 -0.03,-0.83 -0.089,-1.2 h -8.925 c 0.048,-0.76 0.368,-1.43 0.884,-1.92 0.495,-0.48 1.171,-0.73 1.966,-0.73 1.066,0.02 1.87,0.44 2.386,1.33 h 3.357 c -0.377,-1.16 -1.039,-2.12 -2.054,-2.85 -1.021,-0.71 -2.246,-1.11 -3.689,-1.11 z m 2.939,7.29 c -0.067,0.84 -0.344,1.46 -0.897,1.95 -0.575,0.5 -1.219,0.73 -1.999,0.73 -0.804,0 -1.432,-0.25 -1.954,-0.73 -0.528,-0.47 -0.836,-1.14 -0.939,-1.95 h 5.789" /><path
       inkscape:connector-curvature="0"
       id="path510"
       style="fill:#231f20;fill-opacity:1;fill-rule:nonzero;stroke:none;stroke-width:0.1"
       d="m 715.28571,522.1913 c 0.63,0.65 0.973,1.52 0.973,2.64 -0.009,1.15 -0.324,2 -0.973,2.64 -0.667,0.65 -1.407,0.96 -2.275,0.96 -0.896,0.03 -1.624,-0.32 -2.264,-0.95 -0.646,-0.62 -0.961,-1.51 -0.961,-2.63 -0.019,-1.1 0.324,-2 0.972,-2.65 0.639,-0.65 1.402,-0.97 2.264,-0.97 0.831,0.02 1.616,0.32 2.264,0.96 z m -7.014,-1.88 c -1.111,1.22 -1.646,2.7 -1.646,4.54 -0.032,1.86 0.545,3.35 1.635,4.52 1.079,1.18 2.474,1.76 4.153,1.76 1.651,0.02 2.961,-0.7 3.845,-2.08 v 6.01 h 3.092 v -16.35 h -3.092 v 2.05 c -0.937,-1.47 -2.217,-2.23 -3.867,-2.23 -1.67,0.03 -3.023,0.6 -4.12,1.78" /><path
       inkscape:connector-curvature="0"
       id="path512"
       style="fill:#231f20;fill-opacity:1;fill-rule:nonzero;stroke:none;stroke-width:0.1"
       d="m 607.40271,496.8713 h 2.122 c 1.588,0.02 2.878,0.48 3.776,1.44 0.875,0.96 1.347,2.25 1.347,3.89 -0.006,1.64 -0.449,2.93 -1.347,3.89 -0.921,0.96 -2.157,1.43 -3.776,1.43 h -2.122 z m 2.122,13.06 c 2.442,0.03 4.472,-0.71 5.997,-2.12 1.494,-1.41 2.287,-3.28 2.287,-5.61 -0.026,-2.33 -0.762,-4.19 -2.287,-5.59 -1.555,-1.4 -3.523,-2.1 -5.997,-2.1 h -5.236 v 15.42 h 5.236" /><path
       inkscape:connector-curvature="0"
       id="path514"
       style="fill:#231f20;fill-opacity:1;fill-rule:nonzero;stroke:none;stroke-width:0.1"
       d="m 624.85771,494.3313 c -1.792,0.03 -3.234,0.58 -4.354,1.74 -1.143,1.17 -1.678,2.68 -1.678,4.58 -0.032,1.92 0.563,3.42 1.689,4.56 1.099,1.18 2.586,1.72 4.375,1.72 1.77,0.02 3.259,-0.56 4.408,-1.67 1.127,-1.1 1.724,-2.6 1.724,-4.45 -0.031,-0.43 -0.03,-0.83 -0.089,-1.2 h -8.925 c 0.048,-0.76 0.368,-1.43 0.884,-1.92 0.495,-0.48 1.171,-0.73 1.966,-0.73 1.066,0.02 1.87,0.44 2.386,1.33 h 3.357 c -0.377,-1.16 -1.039,-2.12 -2.054,-2.85 -1.021,-0.71 -2.246,-1.11 -3.689,-1.11 z m 2.939,7.29 c -0.067,0.84 -0.344,1.46 -0.897,1.95 -0.575,0.5 -1.219,0.73 -1.999,0.73 -0.804,0 -1.432,-0.25 -1.954,-0.73 -0.528,-0.47 -0.836,-1.14 -0.939,-1.95 h 5.789" /><path
       inkscape:connector-curvature="0"
       id="path516"
       style="fill:#231f20;fill-opacity:1;fill-rule:nonzero;stroke:none;stroke-width:0.1"
       d="m 632.20271,503.1713 c -0.024,1.07 0.449,1.95 1.347,2.67 0.892,0.75 2.092,1.09 3.579,1.09 1.455,0.02 2.681,-0.36 3.58,-1.08 0.873,-0.69 1.377,-1.68 1.436,-2.9 h -3.183 c -0.098,1.05 -0.72,1.55 -1.898,1.55 -0.601,0 -1.047,-0.12 -1.37,-0.36 -0.345,-0.21 -0.486,-0.56 -0.486,-0.97 -0.026,-0.4 0.242,-0.74 0.728,-0.97 0.484,-0.23 1.075,-0.42 1.767,-0.55 0.669,-0.11 1.381,-0.3 2.066,-0.5 0.672,-0.18 1.271,-0.55 1.757,-1.06 0.455,-0.5 0.73,-1.18 0.73,-2.02 -0.009,-1.09 -0.468,-2.01 -1.403,-2.7 -0.943,-0.68 -2.129,-1.04 -3.58,-1.04 -1.465,0.03 -2.64,0.35 -3.569,1.03 -0.951,0.7 -1.435,1.67 -1.523,2.95 h 3.181 c 0.107,-1.03 0.774,-1.55 1.967,-1.55 0.541,0.02 1.038,0.13 1.391,0.39 0.324,0.28 0.53,0.6 0.53,1.02 -0.006,0.43 -0.243,0.75 -0.728,0.99 -0.516,0.26 -1.075,0.43 -1.768,0.56 -0.7,0.17 -1.382,0.3 -2.067,0.49 -0.703,0.19 -1.27,0.53 -1.756,1.03 -0.486,0.51 -0.728,1.13 -0.728,1.93" /><path
       inkscape:connector-curvature="0"
       id="path518"
       style="fill:#231f20;fill-opacity:1;fill-rule:nonzero;stroke:none;stroke-width:0.1"
       d="m 647.83371,509.8613 c -10e-4,-0.51 -0.184,-0.97 -0.553,-1.34 -0.384,-0.34 -0.813,-0.56 -1.336,-0.56 -0.528,0.02 -0.968,0.19 -1.336,0.56 -0.394,0.4 -0.551,0.81 -0.551,1.34 -0.009,0.55 0.183,0.98 0.551,1.35 0.342,0.4 0.813,0.55 1.336,0.55 0.518,0.02 0.968,-0.18 1.336,-0.55 0.352,-0.33 0.553,-0.82 0.553,-1.35 z m -3.445,-15.35 v 12.24 h 3.114 v -12.24 h -3.114" /><path
       inkscape:connector-curvature="0"
       id="path520"
       style="fill:#231f20;fill-opacity:1;fill-rule:nonzero;stroke:none;stroke-width:0.1"
       d="m 651.07171,496.1113 c -1.111,1.22 -1.646,2.7 -1.646,4.54 -0.032,1.86 0.545,3.35 1.635,4.52 1.079,1.18 2.474,1.76 4.153,1.76 1.651,0.02 2.961,-0.7 3.845,-2.08 v 1.9 h 3.092 v -12.33 c -0.007,-1.72 -0.515,-3.18 -1.547,-4.29 -1.054,-1.09 -2.477,-1.67 -4.34,-1.67 -1.874,0.01 -3.343,0.38 -4.441,1.16 -1.128,0.8 -1.719,1.87 -1.865,3.3 h 3.048 c 0.166,-0.52 0.558,-0.98 1.103,-1.29 0.52,-0.29 1.231,-0.48 2.055,-0.48 0.814,0.02 1.513,0.27 2.065,0.82 0.521,0.56 0.83,1.36 0.83,2.45 v 2.14 c -0.937,-1.47 -2.217,-2.23 -3.867,-2.23 -1.67,0.03 -3.023,0.6 -4.12,1.78 z m 7.014,1.88 c 0.63,0.65 0.973,1.52 0.973,2.64 -0.009,1.15 -0.324,2 -0.973,2.64 -0.667,0.65 -1.407,0.96 -2.275,0.96 -0.896,0.03 -1.624,-0.32 -2.264,-0.95 -0.646,-0.62 -0.961,-1.51 -0.961,-2.63 -0.019,-1.1 0.324,-2 0.972,-2.65 0.639,-0.65 1.402,-0.97 2.264,-0.97 0.831,0.02 1.616,0.32 2.264,0.96" /><path
       inkscape:connector-curvature="0"
       id="path522"
       style="fill:#231f20;fill-opacity:1;fill-rule:nonzero;stroke:none;stroke-width:0.1"
       d="m 668.00271,506.7513 v -1.83 c 0.757,1.37 2.048,2.01 3.8,2.01 1.376,0.02 2.541,-0.46 3.425,-1.39 0.851,-0.89 1.325,-2.19 1.325,-3.83 v -7.2 h -3.092 v 6.76 c -0.01,0.97 -0.244,1.69 -0.73,2.2 -0.487,0.52 -1.15,0.76 -1.989,0.76 -0.842,0.03 -1.505,-0.25 -1.998,-0.76 -0.499,-0.5 -0.741,-1.24 -0.741,-2.2 v -6.76 h -3.114 v 12.24 h 3.114" /><path
       inkscape:connector-curvature="0"
       id="path524"
       style="fill:#231f20;fill-opacity:1;fill-rule:nonzero;stroke:none;stroke-width:0.1"
       d="m 619.37571,485.5513 v -15.24 h -1.545 v 11.73 l -5.545,-11.73 h -0.907 l -5.545,11.69 v -11.69 h -1.545 v 15.24 h 1.434 l 6.121,-13.01 6.098,13.01 h 1.434" /><path
       inkscape:connector-curvature="0"
       id="path526"
       style="fill:#231f20;fill-opacity:1;fill-rule:nonzero;stroke:none;stroke-width:0.1"
       d="m 630.53671,472.7713 c 0.875,0.92 1.316,2.1 1.316,3.57 -0.008,1.5 -0.439,2.66 -1.316,3.57 -0.878,0.91 -1.933,1.36 -3.17,1.36 -1.248,0.01 -2.29,-0.44 -3.159,-1.31 -0.895,-0.85 -1.304,-2.04 -1.304,-3.52 -0.024,-1.46 0.438,-2.69 1.315,-3.62 0.847,-0.91 1.93,-1.41 3.159,-1.41 1.214,0.04 2.283,0.46 3.159,1.36 z m -3.389,-2.68 c -1.686,0.01 -3.072,0.6 -4.176,1.79 -1.118,1.2 -1.657,2.71 -1.657,4.56 -0.028,1.87 0.549,3.34 1.646,4.46 1.086,1.13 2.492,1.69 4.187,1.69 1.083,0.01 2.046,-0.26 2.871,-0.79 0.796,-0.53 1.437,-1.22 1.834,-2.06 v 2.63 h 1.547 v -12.06 h -1.547 v 2.65 c -0.404,-0.82 -1.009,-1.53 -1.834,-2.06 -0.855,-0.54 -1.783,-0.81 -2.871,-0.81" /><path
       inkscape:connector-curvature="0"
       id="path528"
       style="fill:#231f20;fill-opacity:1;fill-rule:nonzero;stroke:none;stroke-width:0.1"
       d="m 637.73371,482.3713 v -1.98 c 0.661,1.48 1.907,2.2 3.735,2.2 v -1.61 h -0.443 c -1.092,0.01 -1.874,-0.29 -2.442,-0.86 -0.584,-0.55 -0.85,-1.56 -0.85,-2.96 v -6.85 h -1.545 v 12.06 h 1.545" /><path
       inkscape:connector-curvature="0"
       id="path530"
       style="fill:#231f20;fill-opacity:1;fill-rule:nonzero;stroke:none;stroke-width:0.1"
       d="m 645.03371,470.3113 h -1.545 v 16.35 h 1.545 v -9.68 l 4.861,5.39 h 2.231 l -5.854,-5.96 5.854,-6.1 h -2.122 l -4.97,5.41 v -5.41" /><path
       inkscape:connector-curvature="0"
       id="path532"
       style="fill:#231f20;fill-opacity:1;fill-rule:nonzero;stroke:none;stroke-width:0.1"
       d="m 658.42571,470.0913 c -1.756,0.01 -3.123,0.57 -4.198,1.72 -1.108,1.18 -1.613,2.66 -1.613,4.54 -0.028,1.9 0.549,3.39 1.646,4.53 1.086,1.15 2.517,1.71 4.262,1.71 1.715,0.01 3.135,-0.53 4.166,-1.61 1.012,-1.06 1.547,-2.41 1.547,-4 -0.002,-0.42 -0.03,-0.82 -0.089,-1.19 h -9.943 c 0.035,-1.38 0.479,-2.48 1.26,-3.27 0.77,-0.77 1.769,-1.19 2.962,-1.19 0.896,0.02 1.718,0.21 2.374,0.64 0.633,0.44 1.109,0.98 1.359,1.68 h 1.656 c -0.425,-1.01 -1.045,-1.88 -1.943,-2.56 -0.913,-0.66 -2.048,-1 -3.446,-1 z m 4.219,6.92 c -0.005,1.32 -0.401,2.38 -1.205,3.16 -0.806,0.8 -1.797,1.19 -2.982,1.19 -1.195,0.01 -2.173,-0.39 -2.961,-1.16 -0.81,-0.77 -1.219,-1.84 -1.293,-3.19 h 8.441" /><path
       inkscape:connector-curvature="0"
       id="path534"
       style="fill:#231f20;fill-opacity:1;fill-rule:nonzero;stroke:none;stroke-width:0.1"
       d="m 671.55571,481.1613 h -3.336 v -8 c -0.03,-0.59 0.118,-1.03 0.353,-1.27 0.222,-0.24 0.657,-0.36 1.261,-0.36 h 1.722 v -1.22 h -2.055 c -1.907,0 -2.826,0.95 -2.826,2.85 v 8 h -1.68 v 1.21 h 1.68 v 3.03 h 1.545 v -3.03 h 3.336 v -1.21" /><path
       inkscape:connector-curvature="0"
       id="path536"
       style="fill:#231f20;fill-opacity:1;fill-rule:nonzero;stroke:none;stroke-width:0.1"
       d="m 612.83671,460.1313 c 0.882,-0.79 1.327,-1.89 1.327,-3.22 -0.011,-1.29 -0.439,-2.39 -1.316,-3.2 -0.882,-0.81 -2.176,-1.21 -3.898,-1.21 h -3.116 v -6.39 h -1.545 v 15.24 h 4.661 c 1.702,0.02 3.004,-0.41 3.887,-1.22 z m -7.003,-6.38 h 3.116 c 2.424,0.02 3.645,1.06 3.645,3.17 -0.021,2.15 -1.215,3.17 -3.645,3.17 h -3.116 v -6.34" /><path
       inkscape:connector-curvature="0"
       id="path538"
       style="fill:#231f20;fill-opacity:1;fill-rule:nonzero;stroke:none;stroke-width:0.1"
       d="m 616.08871,446.1113 v 16.35 h 1.545 v -16.35 h -1.545" /><path
       inkscape:connector-curvature="0"
       id="path540"
       style="fill:#231f20;fill-opacity:1;fill-rule:nonzero;stroke:none;stroke-width:0.1"
       d="m 628.83671,448.5713 c 0.875,0.92 1.316,2.1 1.316,3.57 -0.008,1.5 -0.439,2.66 -1.316,3.57 -0.878,0.91 -1.933,1.36 -3.17,1.36 -1.248,0.01 -2.29,-0.44 -3.159,-1.31 -0.895,-0.85 -1.304,-2.04 -1.304,-3.52 -0.024,-1.46 0.438,-2.69 1.315,-3.62 0.847,-0.91 1.93,-1.41 3.159,-1.41 1.214,0.04 2.283,0.46 3.159,1.36 z m -3.389,-2.68 c -1.686,0.01 -3.072,0.6 -4.176,1.79 -1.118,1.2 -1.657,2.71 -1.657,4.56 -0.028,1.87 0.549,3.34 1.646,4.46 1.086,1.13 2.492,1.69 4.187,1.69 1.083,0.01 2.046,-0.26 2.871,-0.79 0.796,-0.53 1.437,-1.22 1.834,-2.06 v 2.63 h 1.547 v -12.06 h -1.547 v 2.65 c -0.404,-0.82 -1.009,-1.53 -1.834,-2.06 -0.855,-0.54 -1.783,-0.81 -2.871,-0.81" /><path
       inkscape:connector-curvature="0"
       id="path542"
       style="fill:#231f20;fill-opacity:1;fill-rule:nonzero;stroke:none;stroke-width:0.1"
       d="m 639.85571,456.9613 h -3.336 v -8 c -0.03,-0.59 0.118,-1.03 0.353,-1.27 0.222,-0.24 0.657,-0.36 1.261,-0.36 h 1.722 v -1.22 h -2.055 c -1.907,0 -2.826,0.95 -2.826,2.85 v 8 h -1.68 v 1.21 h 1.68 v 3.03 h 1.545 v -3.03 h 3.336 v -1.21" /><path
       inkscape:connector-curvature="0"
       id="path544"
       style="fill:#231f20;fill-opacity:1;fill-rule:nonzero;stroke:none;stroke-width:0.1"
       d="m 646.37171,458.1713 v -1.21 h -2.808 v -10.85 h -1.545 v 10.85 h -1.68 v 1.21 h 1.68 v 1.17 c -0.03,1.29 0.331,2.19 0.993,2.77 0.635,0.57 1.723,0.86 3.182,0.86 v -1.24 c -0.993,0.03 -1.654,-0.18 -2.044,-0.55 -0.397,-0.36 -0.586,-0.98 -0.586,-1.84 v -1.17 h 2.808" /><path
       inkscape:connector-curvature="0"
       id="path546"
       style="fill:#231f20;fill-opacity:1;fill-rule:nonzero;stroke:none;stroke-width:0.1"
       d="m 653.24671,447.1313 c 1.247,0.02 2.334,0.45 3.248,1.34 0.892,0.91 1.37,2.13 1.37,3.68 -0.011,1.58 -0.435,2.78 -1.304,3.67 -0.879,0.92 -1.93,1.34 -3.182,1.34 -1.268,0.01 -2.298,-0.45 -3.137,-1.33 -0.843,-0.86 -1.259,-2.11 -1.259,-3.69 -0.018,-1.55 0.397,-2.8 1.193,-3.69 0.781,-0.86 1.819,-1.32 3.071,-1.32 z m 0.011,-1.24 c -1.739,0.01 -3.137,0.57 -4.219,1.72 -1.085,1.18 -1.624,2.66 -1.624,4.52 -0.028,1.89 0.574,3.37 1.722,4.53 1.147,1.17 2.585,1.73 4.308,1.73 1.719,0.01 3.16,-0.58 4.308,-1.73 1.141,-1.14 1.723,-2.66 1.723,-4.51 -0.015,-1.83 -0.604,-3.35 -1.811,-4.52 -1.218,-1.13 -2.676,-1.74 -4.407,-1.74" /><path
       inkscape:connector-curvature="0"
       id="path548"
       style="fill:#231f20;fill-opacity:1;fill-rule:nonzero;stroke:none;stroke-width:0.1"
       d="m 662.93371,458.1713 v -1.98 c 0.661,1.48 1.907,2.2 3.735,2.2 v -1.61 h -0.443 c -1.092,0.01 -1.874,-0.29 -2.442,-0.86 -0.584,-0.55 -0.85,-1.56 -0.85,-2.96 v -6.85 h -1.545 v 12.06 h 1.545" /><path
       inkscape:connector-curvature="0"
       id="path550"
       style="fill:#231f20;fill-opacity:1;fill-rule:nonzero;stroke:none;stroke-width:0.1"
       d="m 670.23371,458.1713 v -1.96 c 0.81,1.46 2.143,2.18 3.999,2.18 0.956,0.01 1.814,-0.23 2.573,-0.68 0.734,-0.46 1.323,-1.13 1.692,-2.01 0.389,0.86 1.004,1.52 1.777,1.99 0.759,0.48 1.661,0.7 2.664,0.7 1.337,0.01 2.458,-0.44 3.356,-1.31 0.877,-0.87 1.349,-2.14 1.349,-3.79 v -7.18 h -1.525 v 6.89 c -0.03,1.33 -0.321,2.34 -0.961,3.03 -0.65,0.72 -1.518,1.04 -2.63,1.04 -1.144,0.01 -1.988,-0.35 -2.628,-1.04 -0.664,-0.67 -0.961,-1.7 -0.961,-3.03 v -6.89 h -1.524 v 6.89 c -0.028,1.33 -0.321,2.34 -0.962,3.03 -0.648,0.72 -1.517,1.04 -2.63,1.04 -1.142,0.01 -1.987,-0.35 -2.628,-1.04 -0.662,-0.67 -0.961,-1.7 -0.961,-3.03 v -6.89 h -1.545 v 12.06 h 1.545" /><path
       inkscape:connector-curvature="0"
       id="path552"
       style="fill:none;stroke:#231f20;stroke-width:0.995;stroke-linecap:butt;stroke-linejoin:miter;stroke-miterlimit:10;stroke-dasharray:none;stroke-opacity:1"
       d="m 560.10671,479.9513 v -33.09 c 18.271,0 33.083,14.82 33.083,33.09 z m 33.085,0 h -53.353 v 53.43 c 29.471,-0.03 53.353,-23.94 53.353,-53.43 z" /><path
       inkscape:connector-curvature="0"
       id="path554"
       style="fill:none;stroke:#231f20;stroke-width:0.75;stroke-linecap:butt;stroke-linejoin:miter;stroke-miterlimit:10;stroke-dasharray:none;stroke-opacity:1"
       d="m 539.67171,446.7413 h 53.6879 v 86.7699 h -53.6879 z" /><g
       id="g1926"
       transform="scale(0.1)" /></g></svg>