<?xml version="1.0" encoding="UTF-8" standalone="no"?>
<!-- Created with Inkscape (http://www.inkscape.org/) -->

<svg
   xmlns:dc="http://purl.org/dc/elements/1.1/"
   xmlns:cc="http://creativecommons.org/ns#"
   xmlns:rdf="http://www.w3.org/1999/02/22-rdf-syntax-ns#"
   xmlns:svg="http://www.w3.org/2000/svg"
   xmlns="http://www.w3.org/2000/svg"
   xmlns:sodipodi="http://sodipodi.sourceforge.net/DTD/sodipodi-0.dtd"
   xmlns:inkscape="http://www.inkscape.org/namespaces/inkscape"
   version="1.1"
   id="svg2"
   xml:space="preserve"
   width="250"
   height="130"
   viewBox="0 0 250 130"
   sodipodi:docname="logo.svg"
   inkscape:version="0.92.2 5c3e80d, 2017-08-06"><metadata
     id="metadata8"><rdf:RDF><cc:Work
         rdf:about=""><dc:format>image/svg+xml</dc:format><dc:type
           rdf:resource="http://purl.org/dc/dcmitype/StillImage" /><dc:title></dc:title></cc:Work></rdf:RDF></metadata><defs
     id="defs6"><clipPath
       clipPathUnits="userSpaceOnUse"
       id="clipPath1924"><path
         d="m 6190,570 h 1680 v 440 H 6190 Z"
         id="path1922"
         inkscape:connector-curvature="0" /></clipPath><clipPath
       clipPathUnits="userSpaceOnUse"
       id="clipPath1930"><path
         d="m 6190,570 h 1680 v 440 H 6190 Z"
         id="path1928"
         inkscape:connector-curvature="0" /></clipPath><clipPath
       clipPathUnits="userSpaceOnUse"
       id="clipPath1934"><path
         d="m 6190,570 h 1680 v 440 H 6190 Z"
         id="path1932"
         inkscape:connector-curvature="0" /></clipPath></defs><sodipodi:namedview
     pagecolor="#ffffff"
     bordercolor="#666666"
     borderopacity="1"
     objecttolerance="10"
     gridtolerance="10"
     guidetolerance="10"
     inkscape:pageopacity="0"
     inkscape:pageshadow="2"
     inkscape:window-width="1663"
     inkscape:window-height="1138"
     id="namedview4"
     showgrid="false"
     inkscape:zoom="0.55114663"
     inkscape:cx="828.00765"
     inkscape:cy="482.97077"
     inkscape:window-x="1480"
     inkscape:window-y="62"
     inkscape:window-maximized="0"
     inkscape:current-layer="g10" /><g
     id="g10"
     inkscape:groupmode="layer"
     inkscape:label="vectorized_file"
     transform="matrix(1.3333333,0,0,-1.3333333,0,129.99998)"><g
       id="g938"
       transform="translate(-535.57371,-442.177)"><path
         d="m 607.40271,521.0713 h 2.122 c 1.588,0.02 2.878,0.48 3.776,1.44 0.875,0.96 1.347,2.25 1.347,3.89 -0.006,1.64 -0.449,2.93 -1.347,3.89 -0.921,0.96 -2.157,1.43 -3.776,1.43 h -2.122 z m 2.122,13.06 c 2.442,0.03 4.472,-0.71 5.997,-2.12 1.494,-1.41 2.287,-3.28 2.287,-5.61 -0.026,-2.33 -0.762,-4.19 -2.287,-5.59 -1.555,-1.4 -3.523,-2.1 -5.997,-2.1 h -5.236 v 15.42 h 5.236"
         style="fill:#231f20;fill-opacity:1;fill-rule:nonzero;stroke:none;stroke-width:0.1"
         id="path490"
         inkscape:connector-curvature="0" /><path
         d="m 622.93371,534.0613 c -10e-4,-0.51 -0.184,-0.97 -0.553,-1.34 -0.384,-0.34 -0.813,-0.56 -1.336,-0.56 -0.528,0.02 -0.968,0.19 -1.336,0.56 -0.394,0.4 -0.551,0.81 -0.551,1.34 -0.009,0.55 0.183,0.98 0.551,1.35 0.342,0.4 0.813,0.55 1.336,0.55 0.518,0.02 0.968,-0.18 1.336,-0.55 0.352,-0.33 0.553,-0.82 0.553,-1.35 z m -3.445,-15.35 v 12.24 h 3.114 v -12.24 h -3.114"
         style="fill:#231f20;fill-opacity:1;fill-rule:nonzero;stroke:none;stroke-width:0.1"
         id="path492"
         inkscape:connector-curvature="0" /><path
         d="m 624.40271,527.3713 c -0.024,1.07 0.449,1.95 1.347,2.67 0.892,0.75 2.092,1.09 3.579,1.09 1.455,0.02 2.681,-0.36 3.58,-1.08 0.873,-0.69 1.377,-1.68 1.436,-2.9 h -3.183 c -0.098,1.05 -0.72,1.55 -1.898,1.55 -0.601,0 -1.047,-0.12 -1.37,-0.36 -0.345,-0.21 -0.486,-0.56 -0.486,-0.97 -0.026,-0.4 0.242,-0.74 0.728,-0.97 0.484,-0.23 1.075,-0.42 1.767,-0.55 0.669,-0.11 1.381,-0.3 2.066,-0.5 0.672,-0.18 1.271,-0.55 1.757,-1.06 0.455,-0.5 0.73,-1.18 0.73,-2.02 -0.009,-1.09 -0.468,-2.01 -1.403,-2.7 -0.943,-0.68 -2.129,-1.04 -3.58,-1.04 -1.465,0.03 -2.64,0.35 -3.569,1.03 -0.951,0.7 -1.435,1.67 -1.523,2.95 h 3.181 c 0.107,-1.03 0.774,-1.55 1.967,-1.55 0.541,0.02 1.038,0.13 1.391,0.39 0.324,0.28 0.53,0.6 0.53,1.02 -0.006,0.43 -0.243,0.75 -0.728,0.99 -0.516,0.26 -1.075,0.43 -1.768,0.56 -0.7,0.17 -1.382,0.3 -2.067,0.49 -0.703,0.19 -1.27,0.53 -1.756,1.03 -0.486,0.51 -0.728,1.13 -0.728,1.93"
         style="fill:#231f20;fill-opacity:1;fill-rule:nonzero;stroke:none;stroke-width:0.1"
         id="path494"
         inkscape:connector-curvature="0" /><path
         d="m 641.13871,521.3213 h 1.478 v -2.61 h -1.964 c -1.261,0 -2.218,0.29 -2.895,0.86 -0.686,0.59 -1.016,1.53 -1.016,2.85 v 5.99 h -1.303 v 2.54 h 1.303 v 3.03 h 3.114 v -3.03 h 2.739 v -2.54 h -2.739 v -5.99 c -0.009,-0.37 0.096,-0.68 0.288,-0.85 0.187,-0.16 0.523,-0.25 0.995,-0.25"
         style="fill:#231f20;fill-opacity:1;fill-rule:nonzero;stroke:none;stroke-width:0.1"
         id="path496"
         inkscape:connector-curvature="0" /><path
         d="m 647.40271,530.9513 v -2.16 c 0.801,1.56 2.017,2.34 3.578,2.34 v -3.19 h -0.773 c -0.953,0.03 -1.627,-0.23 -2.099,-0.69 -0.497,-0.45 -0.706,-1.26 -0.706,-2.4 v -6.14 h -3.114 v 12.24 h 3.114"
         style="fill:#231f20;fill-opacity:1;fill-rule:nonzero;stroke:none;stroke-width:0.1"
         id="path498"
         inkscape:connector-curvature="0" /><path
         d="m 655.83371,534.0613 c -10e-4,-0.51 -0.184,-0.97 -0.553,-1.34 -0.384,-0.34 -0.813,-0.56 -1.336,-0.56 -0.528,0.02 -0.968,0.19 -1.336,0.56 -0.394,0.4 -0.551,0.81 -0.551,1.34 -0.009,0.55 0.183,0.98 0.551,1.35 0.342,0.4 0.813,0.55 1.336,0.55 0.518,0.02 0.968,-0.18 1.336,-0.55 0.352,-0.33 0.553,-0.82 0.553,-1.35 z m -3.445,-15.35 v 12.24 h 3.114 v -12.24 h -3.114"
         style="fill:#231f20;fill-opacity:1;fill-rule:nonzero;stroke:none;stroke-width:0.1"
         id="path500"
         inkscape:connector-curvature="0" /><path
         d="m 666.69371,522.2013 c 0.619,0.65 0.96,1.53 0.96,2.65 -0.007,1.14 -0.32,2 -0.96,2.63 -0.662,0.64 -1.396,0.95 -2.265,0.95 -0.901,0.03 -1.624,-0.32 -2.265,-0.96 -0.652,-0.63 -0.961,-1.52 -0.961,-2.64 -0.024,-1.09 0.32,-2 0.961,-2.64 0.63,-0.64 1.397,-0.96 2.265,-0.96 0.836,0.02 1.624,0.32 2.265,0.97 z m -5.491,6.85 c 0.846,1.4 2.144,2.08 3.822,2.08 1.647,0.02 3.063,-0.59 4.153,-1.76 1.075,-1.16 1.636,-2.68 1.636,-4.53 -0.028,-1.82 -0.545,-3.36 -1.636,-4.54 -1.106,-1.17 -2.463,-1.77 -4.12,-1.77 -1.666,0.03 -2.942,0.75 -3.855,2.23 v -2.05 h -3.114 v 16.35 h 3.114 v -6.01"
         style="fill:#231f20;fill-opacity:1;fill-rule:nonzero;stroke:none;stroke-width:0.1"
         id="path502"
         inkscape:connector-curvature="0" /><path
         d="m 680.92771,530.9513 h 3.114 v -12.24 h -3.114 v 1.86 c -0.814,-1.33 -2.056,-2.01 -3.822,-2.01 -1.411,0.01 -2.52,0.46 -3.403,1.38 -0.908,0.94 -1.325,2.19 -1.325,3.83 v 7.18 h 3.092 v -6.74 c -0.013,-0.92 0.243,-1.69 0.73,-2.21 0.463,-0.51 1.149,-0.77 1.987,-0.77 0.821,0.02 1.507,0.26 2,0.77 0.475,0.52 0.741,1.25 0.741,2.21 v 6.74"
         style="fill:#231f20;fill-opacity:1;fill-rule:nonzero;stroke:none;stroke-width:0.1"
         id="path504"
         inkscape:connector-curvature="0" /><path
         d="m 691.33871,521.3213 h 1.478 v -2.61 h -1.964 c -1.261,0 -2.218,0.29 -2.895,0.86 -0.686,0.59 -1.016,1.53 -1.016,2.85 v 5.99 h -1.303 v 2.54 h 1.303 v 3.03 h 3.114 v -3.03 h 2.739 v -2.54 h -2.739 v -5.99 c -0.009,-0.37 0.096,-0.68 0.288,-0.85 0.187,-0.16 0.523,-0.25 0.995,-0.25"
         style="fill:#231f20;fill-opacity:1;fill-rule:nonzero;stroke:none;stroke-width:0.1"
         id="path506"
         inkscape:connector-curvature="0" /><path
         d="m 699.65771,518.5313 c -1.792,0.03 -3.234,0.58 -4.354,1.74 -1.143,1.17 -1.678,2.68 -1.678,4.58 -0.032,1.92 0.563,3.42 1.689,4.56 1.099,1.18 2.586,1.72 4.375,1.72 1.77,0.02 3.259,-0.56 4.408,-1.67 1.127,-1.1 1.724,-2.6 1.724,-4.45 -0.031,-0.43 -0.03,-0.83 -0.089,-1.2 h -8.925 c 0.048,-0.76 0.368,-1.43 0.884,-1.92 0.495,-0.48 1.171,-0.73 1.966,-0.73 1.066,0.02 1.87,0.44 2.386,1.33 h 3.357 c -0.377,-1.16 -1.039,-2.12 -2.054,-2.85 -1.021,-0.71 -2.246,-1.11 -3.689,-1.11 z m 2.939,7.29 c -0.067,0.84 -0.344,1.46 -0.897,1.95 -0.575,0.5 -1.219,0.73 -1.999,0.73 -0.804,0 -1.432,-0.25 -1.954,-0.73 -0.528,-0.47 -0.836,-1.14 -0.939,-1.95 h 5.789"
         style="fill:#231f20;fill-opacity:1;fill-rule:nonzero;stroke:none;stroke-width:0.1"
         id="path508"
         inkscape:connector-curvature="0" /><path
         d="m 715.28571,522.1913 c 0.63,0.65 0.973,1.52 0.973,2.64 -0.009,1.15 -0.324,2 -0.973,2.64 -0.667,0.65 -1.407,0.96 -2.275,0.96 -0.896,0.03 -1.624,-0.32 -2.264,-0.95 -0.646,-0.62 -0.961,-1.51 -0.961,-2.63 -0.019,-1.1 0.324,-2 0.972,-2.65 0.639,-0.65 1.402,-0.97 2.264,-0.97 0.831,0.02 1.616,0.32 2.264,0.96 z m -7.014,-1.88 c -1.111,1.22 -1.646,2.7 -1.646,4.54 -0.032,1.86 0.545,3.35 1.635,4.52 1.079,1.18 2.474,1.76 4.153,1.76 1.651,0.02 2.961,-0.7 3.845,-2.08 v 6.01 h 3.092 v -16.35 h -3.092 v 2.05 c -0.937,-1.47 -2.217,-2.23 -3.867,-2.23 -1.67,0.03 -3.023,0.6 -4.12,1.78"
         style="fill:#231f20;fill-opacity:1;fill-rule:nonzero;stroke:none;stroke-width:0.1"
         id="path510"
         inkscape:connector-curvature="0" /><path
         d="m 607.40271,496.8713 h 2.122 c 1.588,0.02 2.878,0.48 3.776,1.44 0.875,0.96 1.347,2.25 1.347,3.89 -0.006,1.64 -0.449,2.93 -1.347,3.89 -0.921,0.96 -2.157,1.43 -3.776,1.43 h -2.122 z m 2.122,13.06 c 2.442,0.03 4.472,-0.71 5.997,-2.12 1.494,-1.41 2.287,-3.28 2.287,-5.61 -0.026,-2.33 -0.762,-4.19 -2.287,-5.59 -1.555,-1.4 -3.523,-2.1 -5.997,-2.1 h -5.236 v 15.42 h 5.236"
         style="fill:#231f20;fill-opacity:1;fill-rule:nonzero;stroke:none;stroke-width:0.1"
         id="path512"
         inkscape:connector-curvature="0" /><path
         d="m 624.85771,494.3313 c -1.792,0.03 -3.234,0.58 -4.354,1.74 -1.143,1.17 -1.678,2.68 -1.678,4.58 -0.032,1.92 0.563,3.42 1.689,4.56 1.099,1.18 2.586,1.72 4.375,1.72 1.77,0.02 3.259,-0.56 4.408,-1.67 1.127,-1.1 1.724,-2.6 1.724,-4.45 -0.031,-0.43 -0.03,-0.83 -0.089,-1.2 h -8.925 c 0.048,-0.76 0.368,-1.43 0.884,-1.92 0.495,-0.48 1.171,-0.73 1.966,-0.73 1.066,0.02 1.87,0.44 2.386,1.33 h 3.357 c -0.377,-1.16 -1.039,-2.12 -2.054,-2.85 -1.021,-0.71 -2.246,-1.11 -3.689,-1.11 z m 2.939,7.29 c -0.067,0.84 -0.344,1.46 -0.897,1.95 -0.575,0.5 -1.219,0.73 -1.999,0.73 -0.804,0 -1.432,-0.25 -1.954,-0.73 -0.528,-0.47 -0.836,-1.14 -0.939,-1.95 h 5.789"
         style="fill:#231f20;fill-opacity:1;fill-rule:nonzero;stroke:none;stroke-width:0.1"
         id="path514"
         inkscape:connector-curvature="0" /><path
         d="m 632.20271,503.1713 c -0.024,1.07 0.449,1.95 1.347,2.67 0.892,0.75 2.092,1.09 3.579,1.09 1.455,0.02 2.681,-0.36 3.58,-1.08 0.873,-0.69 1.377,-1.68 1.436,-2.9 h -3.183 c -0.098,1.05 -0.72,1.55 -1.898,1.55 -0.601,0 -1.047,-0.12 -1.37,-0.36 -0.345,-0.21 -0.486,-0.56 -0.486,-0.97 -0.026,-0.4 0.242,-0.74 0.728,-0.97 0.484,-0.23 1.075,-0.42 1.767,-0.55 0.669,-0.11 1.381,-0.3 2.066,-0.5 0.672,-0.18 1.271,-0.55 1.757,-1.06 0.455,-0.5 0.73,-1.18 0.73,-2.02 -0.009,-1.09 -0.468,-2.01 -1.403,-2.7 -0.943,-0.68 -2.129,-1.04 -3.58,-1.04 -1.465,0.03 -2.64,0.35 -3.569,1.03 -0.951,0.7 -1.435,1.67 -1.523,2.95 h 3.181 c 0.107,-1.03 0.774,-1.55 1.967,-1.55 0.541,0.02 1.038,0.13 1.391,0.39 0.324,0.28 0.53,0.6 0.53,1.02 -0.006,0.43 -0.243,0.75 -0.728,0.99 -0.516,0.26 -1.075,0.43 -1.768,0.56 -0.7,0.17 -1.382,0.3 -2.067,0.49 -0.703,0.19 -1.27,0.53 -1.756,1.03 -0.486,0.51 -0.728,1.13 -0.728,1.93"
         style="fill:#231f20;fill-opacity:1;fill-rule:nonzero;stroke:none;stroke-width:0.1"
         id="path516"
         inkscape:connector-curvature="0" /><path
         d="m 647.83371,509.8613 c -10e-4,-0.51 -0.184,-0.97 -0.553,-1.34 -0.384,-0.34 -0.813,-0.56 -1.336,-0.56 -0.528,0.02 -0.968,0.19 -1.336,0.56 -0.394,0.4 -0.551,0.81 -0.551,1.34 -0.009,0.55 0.183,0.98 0.551,1.35 0.342,0.4 0.813,0.55 1.336,0.55 0.518,0.02 0.968,-0.18 1.336,-0.55 0.352,-0.33 0.553,-0.82 0.553,-1.35 z m -3.445,-15.35 v 12.24 h 3.114 v -12.24 h -3.114"
         style="fill:#231f20;fill-opacity:1;fill-rule:nonzero;stroke:none;stroke-width:0.1"
         id="path518"
         inkscape:connector-curvature="0" /><path
         d="m 651.07171,496.1113 c -1.111,1.22 -1.646,2.7 -1.646,4.54 -0.032,1.86 0.545,3.35 1.635,4.52 1.079,1.18 2.474,1.76 4.153,1.76 1.651,0.02 2.961,-0.7 3.845,-2.08 v 1.9 h 3.092 v -12.33 c -0.007,-1.72 -0.515,-3.18 -1.547,-4.29 -1.054,-1.09 -2.477,-1.67 -4.34,-1.67 -1.874,0.01 -3.343,0.38 -4.441,1.16 -1.128,0.8 -1.719,1.87 -1.865,3.3 h 3.048 c 0.166,-0.52 0.558,-0.98 1.103,-1.29 0.52,-0.29 1.231,-0.48 2.055,-0.48 0.814,0.02 1.513,0.27 2.065,0.82 0.521,0.56 0.83,1.36 0.83,2.45 v 2.14 c -0.937,-1.47 -2.217,-2.23 -3.867,-2.23 -1.67,0.03 -3.023,0.6 -4.12,1.78 z m 7.014,1.88 c 0.63,0.65 0.973,1.52 0.973,2.64 -0.009,1.15 -0.324,2 -0.973,2.64 -0.667,0.65 -1.407,0.96 -2.275,0.96 -0.896,0.03 -1.624,-0.32 -2.264,-0.95 -0.646,-0.62 -0.961,-1.51 -0.961,-2.63 -0.019,-1.1 0.324,-2 0.972,-2.65 0.639,-0.65 1.402,-0.97 2.264,-0.97 0.831,0.02 1.616,0.32 2.264,0.96"
         style="fill:#231f20;fill-opacity:1;fill-rule:nonzero;stroke:none;stroke-width:0.1"
         id="path520"
         inkscape:connector-curvature="0" /><path
         d="m 668.00271,506.7513 v -1.83 c 0.757,1.37 2.048,2.01 3.8,2.01 1.376,0.02 2.541,-0.46 3.425,-1.39 0.851,-0.89 1.325,-2.19 1.325,-3.83 v -7.2 h -3.092 v 6.76 c -0.01,0.97 -0.244,1.69 -0.73,2.2 -0.487,0.52 -1.15,0.76 -1.989,0.76 -0.842,0.03 -1.505,-0.25 -1.998,-0.76 -0.499,-0.5 -0.741,-1.24 -0.741,-2.2 v -6.76 h -3.114 v 12.24 h 3.114"
         style="fill:#231f20;fill-opacity:1;fill-rule:nonzero;stroke:none;stroke-width:0.1"
         id="path522"
         inkscape:connector-curvature="0" /><path
         d="m 619.37571,485.5513 v -15.24 h -1.545 v 11.73 l -5.545,-11.73 h -0.907 l -5.545,11.69 v -11.69 h -1.545 v 15.24 h 1.434 l 6.121,-13.01 6.098,13.01 h 1.434"
         style="fill:#231f20;fill-opacity:1;fill-rule:nonzero;stroke:none;stroke-width:0.1"
         id="path524"
         inkscape:connector-curvature="0" /><path
         d="m 630.53671,472.7713 c 0.875,0.92 1.316,2.1 1.316,3.57 -0.008,1.5 -0.439,2.66 -1.316,3.57 -0.878,0.91 -1.933,1.36 -3.17,1.36 -1.248,0.01 -2.29,-0.44 -3.159,-1.31 -0.895,-0.85 -1.304,-2.04 -1.304,-3.52 -0.024,-1.46 0.438,-2.69 1.315,-3.62 0.847,-0.91 1.93,-1.41 3.159,-1.41 1.214,0.04 2.283,0.46 3.159,1.36 z m -3.389,-2.68 c -1.686,0.01 -3.072,0.6 -4.176,1.79 -1.118,1.2 -1.657,2.71 -1.657,4.56 -0.028,1.87 0.549,3.34 1.646,4.46 1.086,1.13 2.492,1.69 4.187,1.69 1.083,0.01 2.046,-0.26 2.871,-0.79 0.796,-0.53 1.437,-1.22 1.834,-2.06 v 2.63 h 1.547 v -12.06 h -1.547 v 2.65 c -0.404,-0.82 -1.009,-1.53 -1.834,-2.06 -0.855,-0.54 -1.783,-0.81 -2.871,-0.81"
         style="fill:#231f20;fill-opacity:1;fill-rule:nonzero;stroke:none;stroke-width:0.1"
         id="path526"
         inkscape:connector-curvature="0" /><path
         d="m 637.73371,482.3713 v -1.98 c 0.661,1.48 1.907,2.2 3.735,2.2 v -1.61 h -0.443 c -1.092,0.01 -1.874,-0.29 -2.442,-0.86 -0.584,-0.55 -0.85,-1.56 -0.85,-2.96 v -6.85 h -1.545 v 12.06 h 1.545"
         style="fill:#231f20;fill-opacity:1;fill-rule:nonzero;stroke:none;stroke-width:0.1"
         id="path528"
         inkscape:connector-curvature="0" /><path
         d="m 645.03371,470.3113 h -1.545 v 16.35 h 1.545 v -9.68 l 4.861,5.39 h 2.231 l -5.854,-5.96 5.854,-6.1 h -2.122 l -4.97,5.41 v -5.41"
         style="fill:#231f20;fill-opacity:1;fill-rule:nonzero;stroke:none;stroke-width:0.1"
         id="path530"
         inkscape:connector-curvature="0" /><path
         d="m 658.42571,470.0913 c -1.756,0.01 -3.123,0.57 -4.198,1.72 -1.108,1.18 -1.613,2.66 -1.613,4.54 -0.028,1.9 0.549,3.39 1.646,4.53 1.086,1.15 2.517,1.71 4.262,1.71 1.715,0.01 3.135,-0.53 4.166,-1.61 1.012,-1.06 1.547,-2.41 1.547,-4 -0.002,-0.42 -0.03,-0.82 -0.089,-1.19 h -9.943 c 0.035,-1.38 0.479,-2.48 1.26,-3.27 0.77,-0.77 1.769,-1.19 2.962,-1.19 0.896,0.02 1.718,0.21 2.374,0.64 0.633,0.44 1.109,0.98 1.359,1.68 h 1.656 c -0.425,-1.01 -1.045,-1.88 -1.943,-2.56 -0.913,-0.66 -2.048,-1 -3.446,-1 z m 4.219,6.92 c -0.005,1.32 -0.401,2.38 -1.205,3.16 -0.806,0.8 -1.797,1.19 -2.982,1.19 -1.195,0.01 -2.173,-0.39 -2.961,-1.16 -0.81,-0.77 -1.219,-1.84 -1.293,-3.19 h 8.441"
         style="fill:#231f20;fill-opacity:1;fill-rule:nonzero;stroke:none;stroke-width:0.1"
         id="path532"
         inkscape:connector-curvature="0" /><path
         d="m 671.55571,481.1613 h -3.336 v -8 c -0.03,-0.59 0.118,-1.03 0.353,-1.27 0.222,-0.24 0.657,-0.36 1.261,-0.36 h 1.722 v -1.22 h -2.055 c -1.907,0 -2.826,0.95 -2.826,2.85 v 8 h -1.68 v 1.21 h 1.68 v 3.03 h 1.545 v -3.03 h 3.336 v -1.21"
         style="fill:#231f20;fill-opacity:1;fill-rule:nonzero;stroke:none;stroke-width:0.1"
         id="path534"
         inkscape:connector-curvature="0" /><path
         d="m 612.83671,460.1313 c 0.882,-0.79 1.327,-1.89 1.327,-3.22 -0.011,-1.29 -0.439,-2.39 -1.316,-3.2 -0.882,-0.81 -2.176,-1.21 -3.898,-1.21 h -3.116 v -6.39 h -1.545 v 15.24 h 4.661 c 1.702,0.02 3.004,-0.41 3.887,-1.22 z m -7.003,-6.38 h 3.116 c 2.424,0.02 3.645,1.06 3.645,3.17 -0.021,2.15 -1.215,3.17 -3.645,3.17 h -3.116 v -6.34"
         style="fill:#231f20;fill-opacity:1;fill-rule:nonzero;stroke:none;stroke-width:0.1"
         id="path536"
         inkscape:connector-curvature="0" /><path
         d="m 616.08871,446.1113 v 16.35 h 1.545 v -16.35 h -1.545"
         style="fill:#231f20;fill-opacity:1;fill-rule:nonzero;stroke:none;stroke-width:0.1"
         id="path538"
         inkscape:connector-curvature="0" /><path
         d="m 628.83671,448.5713 c 0.875,0.92 1.316,2.1 1.316,3.57 -0.008,1.5 -0.439,2.66 -1.316,3.57 -0.878,0.91 -1.933,1.36 -3.17,1.36 -1.248,0.01 -2.29,-0.44 -3.159,-1.31 -0.895,-0.85 -1.304,-2.04 -1.304,-3.52 -0.024,-1.46 0.438,-2.69 1.315,-3.62 0.847,-0.91 1.93,-1.41 3.159,-1.41 1.214,0.04 2.283,0.46 3.159,1.36 z m -3.389,-2.68 c -1.686,0.01 -3.072,0.6 -4.176,1.79 -1.118,1.2 -1.657,2.71 -1.657,4.56 -0.028,1.87 0.549,3.34 1.646,4.46 1.086,1.13 2.492,1.69 4.187,1.69 1.083,0.01 2.046,-0.26 2.871,-0.79 0.796,-0.53 1.437,-1.22 1.834,-2.06 v 2.63 h 1.547 v -12.06 h -1.547 v 2.65 c -0.404,-0.82 -1.009,-1.53 -1.834,-2.06 -0.855,-0.54 -1.783,-0.81 -2.871,-0.81"
         style="fill:#231f20;fill-opacity:1;fill-rule:nonzero;stroke:none;stroke-width:0.1"
         id="path540"
         inkscape:connector-curvature="0" /><path
         d="m 639.85571,456.9613 h -3.336 v -8 c -0.03,-0.59 0.118,-1.03 0.353,-1.27 0.222,-0.24 0.657,-0.36 1.261,-0.36 h 1.722 v -1.22 h -2.055 c -1.907,0 -2.826,0.95 -2.826,2.85 v 8 h -1.68 v 1.21 h 1.68 v 3.03 h 1.545 v -3.03 h 3.336 v -1.21"
         style="fill:#231f20;fill-opacity:1;fill-rule:nonzero;stroke:none;stroke-width:0.1"
         id="path542"
         inkscape:connector-curvature="0" /><path
         d="m 646.37171,458.1713 v -1.21 h -2.808 v -10.85 h -1.545 v 10.85 h -1.68 v 1.21 h 1.68 v 1.17 c -0.03,1.29 0.331,2.19 0.993,2.77 0.635,0.57 1.723,0.86 3.182,0.86 v -1.24 c -0.993,0.03 -1.654,-0.18 -2.044,-0.55 -0.397,-0.36 -0.586,-0.98 -0.586,-1.84 v -1.17 h 2.808"
         style="fill:#231f20;fill-opacity:1;fill-rule:nonzero;stroke:none;stroke-width:0.1"
         id="path544"
         inkscape:connector-curvature="0" /><path
         d="m 653.24671,447.1313 c 1.247,0.02 2.334,0.45 3.248,1.34 0.892,0.91 1.37,2.13 1.37,3.68 -0.011,1.58 -0.435,2.78 -1.304,3.67 -0.879,0.92 -1.93,1.34 -3.182,1.34 -1.268,0.01 -2.298,-0.45 -3.137,-1.33 -0.843,-0.86 -1.259,-2.11 -1.259,-3.69 -0.018,-1.55 0.397,-2.8 1.193,-3.69 0.781,-0.86 1.819,-1.32 3.071,-1.32 z m 0.011,-1.24 c -1.739,0.01 -3.137,0.57 -4.219,1.72 -1.085,1.18 -1.624,2.66 -1.624,4.52 -0.028,1.89 0.574,3.37 1.722,4.53 1.147,1.17 2.585,1.73 4.308,1.73 1.719,0.01 3.16,-0.58 4.308,-1.73 1.141,-1.14 1.723,-2.66 1.723,-4.51 -0.015,-1.83 -0.604,-3.35 -1.811,-4.52 -1.218,-1.13 -2.676,-1.74 -4.407,-1.74"
         style="fill:#231f20;fill-opacity:1;fill-rule:nonzero;stroke:none;stroke-width:0.1"
         id="path546"
         inkscape:connector-curvature="0" /><path
         d="m 662.93371,458.1713 v -1.98 c 0.661,1.48 1.907,2.2 3.735,2.2 v -1.61 h -0.443 c -1.092,0.01 -1.874,-0.29 -2.442,-0.86 -0.584,-0.55 -0.85,-1.56 -0.85,-2.96 v -6.85 h -1.545 v 12.06 h 1.545"
         style="fill:#231f20;fill-opacity:1;fill-rule:nonzero;stroke:none;stroke-width:0.1"
         id="path548"
         inkscape:connector-curvature="0" /><path
         d="m 670.23371,458.1713 v -1.96 c 0.81,1.46 2.143,2.18 3.999,2.18 0.956,0.01 1.814,-0.23 2.573,-0.68 0.734,-0.46 1.323,-1.13 1.692,-2.01 0.389,0.86 1.004,1.52 1.777,1.99 0.759,0.48 1.661,0.7 2.664,0.7 1.337,0.01 2.458,-0.44 3.356,-1.31 0.877,-0.87 1.349,-2.14 1.349,-3.79 v -7.18 h -1.525 v 6.89 c -0.03,1.33 -0.321,2.34 -0.961,3.03 -0.65,0.72 -1.518,1.04 -2.63,1.04 -1.144,0.01 -1.988,-0.35 -2.628,-1.04 -0.664,-0.67 -0.961,-1.7 -0.961,-3.03 v -6.89 h -1.524 v 6.89 c -0.028,1.33 -0.321,2.34 -0.962,3.03 -0.648,0.72 -1.517,1.04 -2.63,1.04 -1.142,0.01 -1.987,-0.35 -2.628,-1.04 -0.662,-0.67 -0.961,-1.7 -0.961,-3.03 v -6.89 h -1.545 v 12.06 h 1.545"
         style="fill:#231f20;fill-opacity:1;fill-rule:nonzero;stroke:none;stroke-width:0.1"
         id="path550"
         inkscape:connector-curvature="0" /><path
         d="m 560.10671,479.9513 v -33.09 c 18.271,0 33.083,14.82 33.083,33.09 z m 33.085,0 h -53.353 v 53.43 c 29.471,-0.03 53.353,-23.94 53.353,-53.43 z"
         style="fill:none;stroke:#231f20;stroke-width:0.995;stroke-linecap:butt;stroke-linejoin:miter;stroke-miterlimit:10;stroke-dasharray:none;stroke-opacity:1"
         id="path552"
         inkscape:connector-curvature="0" /><path
         d="m 539.67171,446.7413 h 53.6879 v 86.7699 h -53.6879 z"
         style="fill:none;stroke:#231f20;stroke-width:0.75;stroke-linecap:butt;stroke-linejoin:miter;stroke-miterlimit:10;stroke-dasharray:none;stroke-opacity:1"
         id="path554"
         inkscape:connector-curvature="0" /></g><g
       id="g1926"
       transform="scale(0.1)" /></g></svg>